<?xml version="1.0" encoding="utf-8"?>
<!-- Generator: Adobe Illustrator 18.1.0, SVG Export Plug-In . SVG Version: 6.00 Build 0)  -->
<!DOCTYPE svg PUBLIC "-//W3C//DTD SVG 1.1//EN" "http://www.w3.org/Graphics/SVG/1.1/DTD/svg11.dtd">
<svg version="1.1" xmlns="http://www.w3.org/2000/svg" xmlns:xlink="http://www.w3.org/1999/xlink" x="0px" y="0px" width="30px"
	 height="30px" viewBox="0 0 30 30" enable-background="new 0 0 30 30" xml:space="preserve">
<g id="Blackground" display="none">
	<rect x="-1304" y="-732.5" display="inline" width="2444" height="1760"/>
</g>
<g id="Layer_1">
	<path fill-rule="evenodd" clip-rule="evenodd" fill="#B95BF0" d="M15,0c8.3,0,15,6.7,15,15s-6.7,15-15,15S0,23.3,0,15S6.7,0,15,0z"
		/>
	<path fill-rule="evenodd" clip-rule="evenodd" fill="#7428CA" d="M29.4,19.4L16,6h-2v3.9l-3.1,1.7l-1,2.5H6v2l13.4,13.4
		C24.1,27.9,27.9,24.1,29.4,19.4z"/>
	<g>
		<path fill-rule="evenodd" clip-rule="evenodd" fill="#FFFFFF" d="M16,6h-2v2h2V6z M24,14h-2v2h2V14z M19.7,18.3
			c0.7-1,1.1-2.2,1.1-3.5c0-3.3-2.7-6-6-6c-3.3,0-6,2.7-6,6c0,3.3,2.7,6,6,6c1.3,0,2.5-0.4,3.5-1.1l4.3,4.3l1.4-1.4L19.7,18.3z
			 M14.8,18.8c-2.2,0-4-1.8-4-4c0-2.2,1.8-4,4-4c2.2,0,4,1.8,4,4C18.8,17.1,17.1,18.8,14.8,18.8z M14,24h2v-2h-2V24z M6,16h2v-2H6
			V16z"/>
	</g>
</g>
</svg>
