<?xml version="1.0" encoding="utf-8"?>
<!-- Generator: Adobe Illustrator 18.1.0, SVG Export Plug-In . SVG Version: 6.00 Build 0)  -->
<!DOCTYPE svg PUBLIC "-//W3C//DTD SVG 1.1//EN" "http://www.w3.org/Graphics/SVG/1.1/DTD/svg11.dtd">
<svg version="1.1" xmlns="http://www.w3.org/2000/svg" xmlns:xlink="http://www.w3.org/1999/xlink" x="0px" y="0px" width="30px"
	 height="30px" viewBox="0 0 30 30" enable-background="new 0 0 30 30" xml:space="preserve">
<g id="Blackground" display="none">
	<rect x="-994" y="-701.5" display="inline" width="2444" height="1760"/>
</g>
<g id="Layer_1">
	<g>
		<path fill-rule="evenodd" clip-rule="evenodd" fill="#FFFFFF" d="M18.3,16.9c0.7-1,1.1-2.2,1.1-3.5c0-3.3-2.7-6-6-6
			c-3.3,0-6,2.7-6,6c0,3.3,2.7,6,6,6c1.3,0,2.5-0.4,3.5-1.1l4.3,4.3l1.4-1.4L18.3,16.9z M13.4,17.4c-2.2,0-4-1.8-4-4
			c0-2.2,1.8-4,4-4c2.2,0,4,1.8,4,4C17.4,15.6,15.6,17.4,13.4,17.4z"/>
	</g>
</g>
</svg>
