<?xml version="1.0" encoding="utf-8"?>
<!-- Generator: Adobe Illustrator 18.1.0, SVG Export Plug-In . SVG Version: 6.00 Build 0)  -->
<!DOCTYPE svg PUBLIC "-//W3C//DTD SVG 1.1//EN" "http://www.w3.org/Graphics/SVG/1.1/DTD/svg11.dtd">
<svg version="1.1" xmlns="http://www.w3.org/2000/svg" xmlns:xlink="http://www.w3.org/1999/xlink" x="0px" y="0px" width="50px"
	 height="65px" viewBox="0 0 50 65" enable-background="new 0 0 50 65" xml:space="preserve">
<g id="Blackground" display="none">
	<rect x="-1096" y="-916.5" display="inline" width="2444" height="1760"/>
</g>
<g id="Layer_1">
	<g>
		<path fill-rule="evenodd" clip-rule="evenodd" fill="#FFFFFF" d="M31,30.5h-7v1h7V30.5z M31,34.5h-7v1h7V34.5z M31,32.5h-7v1h7
			V32.5z M23,31.5c0-1.1-0.9-2-2-2c-1.1,0-2,0.9-2,2c0,1.1,0.9,2,2,2C22.1,33.5,23,32.6,23,31.5z M32,25.5H18c-1.1,0-2,0.9-2,2v10
			c0,1.1,0.9,2,2,2h14c1.1,0,2-0.9,2-2v-10C34,26.4,33.1,25.5,32,25.5z M32,37.5H18v-10h14V37.5z M19,35.5h4c0-1.1-0.9-2-2-2
			C19.9,33.5,19,34.4,19,35.5z"/>
	</g>
</g>
</svg>
