<?xml version="1.0" encoding="utf-8"?>
<!-- Generator: Adobe Illustrator 18.1.0, SVG Export Plug-In . SVG Version: 6.00 Build 0)  -->
<!DOCTYPE svg PUBLIC "-//W3C//DTD SVG 1.1//EN" "http://www.w3.org/Graphics/SVG/1.1/DTD/svg11.dtd">
<svg version="1.1" xmlns="http://www.w3.org/2000/svg" xmlns:xlink="http://www.w3.org/1999/xlink" x="0px" y="0px" width="50px"
	 height="65px" viewBox="0 0 50 65" enable-background="new 0 0 50 65" xml:space="preserve">
<g id="Blackground" display="none">
	<rect x="-1147" y="-982.5" display="inline" width="2444" height="1760"/>
</g>
<g id="Layer_1">
	<path fill-rule="evenodd" clip-rule="evenodd" fill="#61C1F6" d="M25,1c13.8,0,25,11.2,25,25c0,8.2,0,39,0,39H0c0,0,0-26.9,0-39
		C0,12.2,11.2,1,25,1z"/>
	<polyline fill-rule="evenodd" clip-rule="evenodd" fill="#027FD4" points="50,50.5 23.5,24 16.5,24 16.5,31 50,64.5 	"/>
	<g>
		<g>
			<path fill-rule="evenodd" clip-rule="evenodd" fill="#FFFFFF" d="M23.5,24h-7v7l10,10l7-7L23.5,24z M20,29
				c-0.8,0-1.5-0.7-1.5-1.5c0-0.8,0.7-1.5,1.5-1.5c0.8,0,1.5,0.7,1.5,1.5C21.5,28.3,20.8,29,20,29z"/>
		</g>
	</g>
</g>
</svg>
