<?xml version="1.0" encoding="utf-8"?>
<!-- Generator: Adobe Illustrator 18.1.0, SVG Export Plug-In . SVG Version: 6.00 Build 0)  -->
<!DOCTYPE svg PUBLIC "-//W3C//DTD SVG 1.1//EN" "http://www.w3.org/Graphics/SVG/1.1/DTD/svg11.dtd">
<svg version="1.1" xmlns="http://www.w3.org/2000/svg" xmlns:xlink="http://www.w3.org/1999/xlink" x="0px" y="0px" width="60px"
	 height="60px" viewBox="0 0 60 60" enable-background="new 0 0 60 60" xml:space="preserve">
<g id="Blackground" display="none">
	<rect x="-1055" y="-855.5" display="inline" width="2444" height="1760"/>
</g>
<g id="Layer_1">
	<path fill-rule="evenodd" clip-rule="evenodd" fill="#2D2D2D" d="M0,0h60v60H0V0z"/>
	<path fill-rule="evenodd" clip-rule="evenodd" d="M29,24v2l31,31V58L31,29h-2v2l29,29h-1L31,34h-2v2l24,24h7v-7L31,24H29z"/>
	<path fill="#FFFFFF" d="M29,36h2v-2h-2V36L29,36z M29,31h2v-2h-2V31L29,31z M29,24v2h2v-2H29L29,24z"/>
</g>
</svg>
