<?xml version="1.0" encoding="utf-8"?>
<!-- Generator: Adobe Illustrator 18.1.0, SVG Export Plug-In . SVG Version: 6.00 Build 0)  -->
<!DOCTYPE svg PUBLIC "-//W3C//DTD SVG 1.1//EN" "http://www.w3.org/Graphics/SVG/1.1/DTD/svg11.dtd">
<svg version="1.1" xmlns="http://www.w3.org/2000/svg" xmlns:xlink="http://www.w3.org/1999/xlink" x="0px" y="0px" width="60px"
	 height="60px" viewBox="0 0 60 60" enable-background="new 0 0 60 60" xml:space="preserve">
<g id="Blackground" display="none">
	<rect x="-1421" y="-855.5" display="inline" width="2444" height="1760"/>
</g>
<g id="Layer_1">
	<path fill="#4DB2F7" d="M30,25c-3.2,0-5.9,2.1-7,5c1.1,2.9,3.8,5,7,5s5.9-2.1,7-5C35.9,27.1,33.2,25,30,25L30,25z M30,33.3
		c-1.8,0-3.2-1.5-3.2-3.3c0-1.9,1.4-3.3,3.2-3.3c1.8,0,3.2,1.5,3.2,3.3C33.2,31.9,31.8,33.3,30,33.3L30,33.3z M30,28
		c-1.1,0-1.9,0.9-1.9,2c0,1.1,0.8,2,1.9,2s1.9-0.9,1.9-2C31.9,28.9,31.1,28,30,28L30,28z"/>
</g>
</svg>
